<?xml version="1.0" standalone="no"?>
<!DOCTYPE svg PUBLIC "-//W3C//DTD SVG 20010904//EN"
 "http://www.w3.org/TR/2001/REC-SVG-20010904/DTD/svg10.dtd">
<svg version="1.0" xmlns="http://www.w3.org/2000/svg"
 width="880.000000pt" height="880.000000pt" viewBox="0 0 880.000000 880.000000"
 preserveAspectRatio="xMidYMid meet">
<metadata>
Created by potrace 1.11, written by Peter Selinger 2001-2013
</metadata>
<g transform="translate(0.000000,880.000000) scale(0.100000,-0.100000)"
fill="#000000" stroke="none">
<path d="M3239 7033 c0 -48 0 -132 1 -186 1 -97 1 -98 -20 -87 -19 10 -20 8
-20 -37 0 -88 1 -178 1 -190 0 -7 0 -42 0 -78 0 -36 0 -72 0 -80 0 -8 -1 -43
-2 -77 0 -35 0 -67 1 -73 1 -5 2 -14 1 -20 -1 -5 -2 -54 -3 -107 0 -111 -1
-112 -76 -78 -43 20 -44 20 -83 0 -21 -11 -40 -18 -40 -15 -3 10 -5 20 -14 60
-4 22 -9 45 -11 50 -5 18 -14 60 -20 90 -2 17 -9 46 -14 65 -5 19 -11 46 -14
60 -4 22 -42 197 -51 240 -2 8 -10 44 -19 80 -8 35 -13 67 -10 70 3 3 31 6 62
7 31 0 71 4 87 8 17 3 38 7 48 8 9 1 15 6 13 12 -2 5 -10 8 -17 6 -8 -2 -27
-4 -44 -6 -16 -2 -51 -6 -77 -9 -39 -6 -48 -4 -49 9 -2 23 -3 28 -16 60 -6 17
-15 44 -19 60 -4 17 -8 32 -9 35 -1 3 -5 22 -9 43 -5 20 -13 40 -19 44 -18 11
-266 81 -271 76 -2 -2 5 -37 16 -76 11 -39 21 -76 22 -82 2 -5 8 -28 14 -50
43 -148 61 -219 56 -226 -9 -16 -24 -10 -24 9 0 10 -2 21 -5 24 -8 7 -258 -97
-262 -109 -2 -5 2 -17 10 -26 11 -16 15 -16 42 -3 58 28 200 86 212 86 7 0 13
-7 13 -15 0 -21 1 -27 11 -52 5 -13 22 -76 40 -140 17 -65 35 -134 40 -153 5
-19 12 -44 14 -55 3 -11 20 -78 39 -150 l34 -130 -41 -19 c-69 -32 -75 -29
-119 54 -22 41 -65 122 -95 180 -31 58 -75 141 -98 185 -24 44 -60 112 -80
150 -21 39 -38 81 -39 95 0 14 -47 117 -104 228 l-103 204 -86 -7 c-107 -8
-208 -38 -227 -68 -15 -22 -15 -50 -2 -97 24 -87 36 -117 90 -225 33 -66 64
-124 68 -130 5 -5 20 -28 34 -49 l26 -39 -29 -27 c-15 -14 -46 -39 -68 -55
-41 -31 -86 -69 -113 -95 -14 -13 -14 -15 0 -18 9 -2 32 12 51 30 44 43 113
99 148 120 21 13 26 22 22 40 -4 19 2 15 29 -17 18 -22 71 -85 117 -140 46
-55 101 -120 123 -145 98 -110 176 -196 216 -236 24 -24 38 -44 32 -44 -6 0
-28 -11 -48 -25 -44 -30 -31 -34 16 -5 39 24 42 24 42 5 0 -12 20 -5 80 25 54
27 80 46 80 58 0 15 25 29 102 57 12 5 22 -4 38 -34 l20 -41 41 21 41 20 35
-27 c94 -72 95 -147 2 -224 -98 -82 -111 -95 -130 -132 -34 -67 -24 -174 22
-240 11 -14 19 -30 19 -35 0 -5 18 -28 40 -51 23 -23 37 -42 32 -42 -9 0 -59
19 -117 45 -16 8 -97 41 -180 75 -82 33 -159 65 -170 70 -11 5 -58 25 -105 44
l-85 35 -2 43 c-1 24 -2 51 -2 61 -1 10 -7 17 -13 15 -7 -3 -42 9 -78 25 -119
54 -556 205 -672 233 -32 7 -35 20 -11 54 10 14 25 40 34 58 16 29 16 33 1 41
-14 8 -15 12 -2 35 7 14 19 26 26 26 7 0 66 -31 132 -69 66 -38 148 -84 183
-102 35 -19 65 -37 67 -41 2 -5 9 -8 16 -8 6 0 35 -15 64 -34 28 -19 52 -33
52 -30 0 5 17 -8 50 -38 28 -25 96 -58 124 -60 l24 -2 -19 -38 c-11 -21 -16
-38 -11 -38 4 0 21 25 37 55 21 41 34 55 52 56 26 2 31 3 58 14 42 17 45 26
22 48 -12 12 -65 54 -117 93 -52 39 -187 140 -300 224 -146 109 -212 153 -229
152 -15 -1 -41 12 -70 35 -25 21 -53 43 -61 50 -58 45 -211 169 -240 192 -29
25 -38 27 -55 18 -37 -21 -295 -219 -295 -227 0 -3 24 -22 52 -40 29 -19 55
-38 56 -42 2 -4 10 -8 17 -8 8 0 20 -6 27 -12 8 -7 25 -19 38 -27 36 -21 274
-164 278 -167 4 -2 -28 -62 -59 -111 l-21 -33 21 -8 20 -7 -21 -33 -21 -34
-91 6 c-50 3 -105 8 -123 10 -45 7 -180 15 -331 21 -142 6 -133 9 -147 -52 -2
-10 -16 -65 -30 -123 -34 -135 -35 -140 -27 -141 26 -3 78 -12 147 -25 44 -9
94 -18 110 -20 17 -3 37 -7 45 -10 8 -3 29 -8 46 -10 17 -2 66 -13 110 -24 43
-11 84 -20 91 -20 6 0 19 25 28 55 8 30 17 55 20 55 2 0 15 -4 28 -9 13 -5 37
-12 53 -15 16 -3 47 -10 69 -15 22 -5 51 -12 65 -14 14 -3 36 -8 50 -11 14 -3
45 -8 70 -11 25 -3 63 -8 85 -12 46 -7 258 -7 328 -1 l48 5 -4 -31 c-3 -17
-13 -70 -23 -118 -18 -86 -18 -86 -52 -90 -18 -2 -36 0 -38 4 -3 5 -9 6 -14 3
-4 -3 -34 -5 -66 -5 -85 0 -255 0 -359 1 -49 0 -101 0 -115 -1 -14 -1 -32 -1
-40 -1 -8 0 -45 1 -81 1 l-67 1 18 67 c10 37 23 82 28 99 11 36 -1 55 -16 26
-8 -16 -23 -94 -22 -116 0 -4 -6 -23 -14 -42 -9 -22 -11 -37 -5 -41 5 -3 8
-13 5 -22 -3 -10 -8 -42 -11 -72 -6 -49 -25 -84 -33 -61 -2 5 -16 6 -32 1 -17
-5 -32 -5 -35 0 -3 5 -15 6 -29 0 -12 -4 -29 -4 -36 0 -8 5 -21 5 -30 0 -9 -5
-22 -5 -30 0 -8 5 -21 5 -30 0 -9 -5 -22 -5 -30 0 -8 5 -21 5 -30 0 -9 -5 -22
-5 -30 0 -8 5 -21 5 -30 0 -9 -5 -22 -5 -30 0 -8 5 -21 5 -30 0 -9 -5 -22 -5
-29 -1 -7 4 -23 6 -36 3 -22 -4 -24 -8 -19 -56 6 -72 12 -133 19 -191 3 -27 7
-69 9 -93 2 -24 7 -47 12 -52 5 -4 74 3 154 16 80 14 159 26 175 29 17 2 30 4
30 5 0 2 27 7 74 14 l40 5 15 -52 c8 -29 17 -63 19 -77 14 -75 22 -110 29
-130 22 -57 21 -58 -71 -85 -268 -81 -398 -122 -417 -133 -10 -5 -5 -18 19
-49 18 -23 48 -64 67 -92 19 -27 38 -50 43 -51 4 0 7 -5 7 -11 0 -6 10 -24 22
-39 13 -15 32 -40 43 -55 11 -15 39 -54 63 -87 l43 -59 42 40 c37 34 135 115
207 169 14 10 44 31 67 45 l42 27 36 -62 c36 -60 104 -153 143 -194 20 -21 20
-23 4 -37 -9 -8 -31 -22 -49 -31 -17 -8 -90 -74 -162 -145 l-130 -130 49 -35
c28 -20 55 -36 60 -36 6 0 10 -4 10 -10 0 -5 5 -10 10 -10 6 0 28 -12 49 -27
21 -16 49 -35 61 -43 12 -8 40 -27 61 -43 21 -15 45 -27 53 -27 9 0 37 29 63
65 72 98 131 176 160 212 l25 32 37 -23 c20 -12 74 -42 121 -66 138 -70 184
-98 188 -109 2 -6 -32 -64 -75 -128 -43 -65 -91 -143 -108 -173 -90 -168 -93
-182 -41 -170 41 9 151 1 206 -15 8 -2 26 -6 40 -9 14 -3 62 -16 108 -29 45
-14 82 -22 82 -20 0 3 7 0 15 -7 21 -18 25 -11 30 54 2 31 6 59 8 63 3 5 8 26
11 48 6 35 20 82 46 150 4 11 17 42 30 68 l22 48 41 -6 c23 -3 67 -10 97 -15
47 -8 107 -17 132 -19 5 -1 6 -16 3 -33 -27 -184 -33 -233 -29 -240 3 -4 2 -8
-3 -8 -4 0 -8 -10 -9 -22 0 -25 -9 -94 -23 -178 -5 -30 -7 -58 -5 -62 9 -15
-26 -23 -141 -33 -33 -3 -82 -8 -110 -10 -27 -2 -68 -7 -90 -10 -53 -6 -109
-13 -175 -20 -30 -3 -71 -7 -90 -9 -19 -3 -64 -8 -100 -11 -36 -4 -76 -8 -90
-10 -14 -1 -56 -5 -95 -9 -38 -4 -81 -9 -95 -11 -14 -2 -51 -6 -82 -10 -33 -4
-58 -11 -59 -18 -3 -41 2 -150 6 -158 4 -5 1 -9 -6 -9 -26 0 16 -30 154 -110
78 -46 161 -96 183 -111 23 -16 44 -26 46 -23 3 2 11 -2 18 -11 7 -8 19 -15
26 -15 8 0 14 -4 14 -10 0 -5 4 -10 9 -10 5 0 103 -56 218 -124 l210 -125 82
19 82 18 -5 -26 c-3 -15 -8 -45 -11 -67 -3 -23 -8 -52 -11 -65 -2 -14 -6 -38
-8 -55 -3 -16 -7 -46 -11 -65 -3 -19 -7 -44 -8 -55 -2 -20 5 -20 476 -23 l479
-2 -7 62 c-3 35 -9 76 -11 93 -3 16 -7 49 -10 73 -2 24 -9 74 -15 111 -20 125
-20 141 -1 142 9 0 24 2 32 3 8 2 56 7 105 11 105 8 163 13 225 20 25 3 68 8
95 11 28 2 79 9 115 15 36 6 80 12 98 15 17 2 49 7 70 10 20 3 53 7 72 9 19 2
55 7 80 11 25 4 55 8 67 8 15 1 21 6 19 16 -14 52 -30 126 -28 132 1 4 -22 26
-51 49 -28 22 -61 48 -72 58 -34 29 -51 31 -105 11 -28 -10 -53 -19 -55 -19
-3 -1 -36 34 -73 76 -108 126 -115 133 -154 177 -21 22 -38 44 -38 47 0 13
-35 21 -100 25 -36 2 -85 6 -110 8 -50 6 -201 17 -268 20 -54 3 -64 14 -68 73
-4 73 -13 209 -20 293 -12 158 -10 194 8 198 16 3 17 -14 18 -214 0 -119 2
-219 5 -222 2 -3 35 -6 72 -8 38 -1 106 -5 153 -8 47 -3 126 -8 175 -11 50 -3
120 -8 157 -11 36 -2 69 -1 71 4 3 4 -38 139 -92 300 -82 247 -95 294 -83 304
12 10 83 39 132 54 11 4 56 -77 173 -311 l157 -316 93 70 c50 38 127 96 170
128 42 32 109 82 148 112 l70 53 -24 27 c-13 14 -37 41 -53 60 -16 19 -36 42
-44 51 -8 8 -35 40 -60 70 -25 30 -56 67 -70 81 -14 15 -41 46 -59 69 -19 23
-40 48 -46 54 -5 6 -33 38 -60 71 -28 33 -62 73 -77 90 -23 26 -69 80 -127
150 -129 157 -287 340 -325 376 -18 18 -20 18 -59 -5 -21 -13 -58 -41 -81 -62
-22 -21 -44 -38 -49 -36 -4 1 -25 -7 -47 -18 -21 -11 -48 -20 -58 -20 -10 0
-56 -18 -101 -40 -45 -22 -86 -40 -91 -40 -6 0 -10 12 -11 28 0 15 -2 56 -4
92 -2 36 -6 128 -9 205 -3 77 -8 183 -11 235 -3 52 -7 146 -9 207 l-5 113 37
-16 c20 -9 60 -25 87 -36 28 -11 64 -26 80 -33 77 -35 131 -58 275 -118 85
-36 173 -72 195 -82 94 -38 98 -42 65 -75 -11 -11 -20 -24 -20 -30 0 -8 239
-130 255 -130 10 0 528 -251 535 -259 3 -3 30 -18 60 -33 30 -15 100 -52 155
-81 55 -30 139 -75 187 -100 l86 -46 26 72 c14 40 50 145 80 234 57 171 57
176 6 187 -58 13 -250 65 -258 70 -5 3 -19 7 -33 10 -13 2 -85 20 -159 39
-110 29 -537 126 -623 143 -25 4 -67 14 -82 18 -21 6 -90 20 -100 21 -13 0
-12 13 4 50 7 16 15 48 18 70 6 49 7 49 30 37 10 -6 169 -60 353 -120 184 -61
387 -129 450 -152 63 -23 126 -45 140 -50 14 -4 70 -25 125 -45 55 -20 114
-41 130 -46 17 -5 39 -13 50 -18 11 -5 47 -19 80 -30 33 -11 98 -34 145 -51
47 -17 101 -36 120 -42 19 -5 40 -13 45 -16 6 -4 15 -7 20 -8 14 -3 186 -64
210 -74 11 -5 90 -34 175 -64 180 -63 303 -107 395 -142 11 -4 25 -8 30 -10
10 -2 366 -129 395 -141 8 -3 76 -27 150 -53 167 -60 247 -88 375 -135 55 -21
111 -40 125 -43 14 -3 34 -11 45 -18 11 -7 22 -13 25 -13 7 0 26 -6 105 -35
39 -14 75 -26 80 -26 6 0 22 -6 36 -14 21 -10 64 -26 89 -30 3 -1 10 -5 17 -9
12 -8 27 8 20 21 -3 4 -8 36 -12 72 -4 36 -9 68 -11 72 -3 4 -7 29 -9 55 -2
26 -6 57 -8 68 -3 11 -8 45 -12 75 -4 30 -9 64 -11 75 -2 11 -6 42 -10 70 -3
27 -7 52 -9 55 -2 3 -6 32 -9 65 -4 33 -9 67 -11 75 -2 8 -7 35 -10 60 -2 25
-7 56 -10 70 -3 14 -8 45 -10 70 -2 25 -7 57 -9 71 -15 68 -13 112 6 147 10
21 54 116 97 212 43 96 88 195 99 220 53 113 179 395 178 397 -1 2 -216 3
-477 3 -261 0 -607 0 -769 1 -162 0 -302 1 -310 1 -8 -1 -283 -1 -610 -2
l-595 -1 -59 -74 c-120 -151 -135 -165 -191 -170 -46 -4 -99 -10 -200 -21
-138 -14 -135 -15 -144 9 -5 12 -7 25 -5 29 3 4 5 39 5 77 1 39 5 72 10 72 5
1 12 2 17 3 59 15 119 26 159 31 18 2 36 6 41 9 5 3 24 8 43 11 96 15 130 27
125 44 -8 26 -97 384 -102 410 -10 50 -15 51 -94 20 -41 -16 -84 -34 -95 -39
-11 -5 -65 -27 -120 -49 l-100 -40 -26 29 c-14 16 -42 61 -63 100 l-37 70 38
18 c21 10 75 37 121 60 l82 42 -27 43 c-14 23 -45 71 -68 107 -71 110 -149
235 -161 255 -6 11 -18 20 -27 20 -8 0 -63 -39 -120 -87 -58 -49 -111 -88
-118 -88 -8 0 -34 20 -59 44 -25 24 -85 73 -135 110 -49 36 -95 70 -102 76 -7
5 -17 10 -22 10 -18 0 -40 43 -46 90 -3 25 -7 52 -9 60 -4 28 -28 95 -37 104
-5 6 -9 16 -9 23 0 21 -84 143 -95 140 -5 -2 -26 -60 -45 -128 -19 -68 -38
-127 -43 -130 -5 -4 -43 4 -85 17 -98 31 -119 29 -27 -1 52 -17 69 -27 67 -39
-2 -9 -29 -83 -61 -164 -32 -81 -80 -203 -106 -272 -106 -273 -102 -265 -127
-262 -13 2 -28 8 -33 12 -6 5 -23 11 -39 14 -36 7 -129 37 -138 45 -6 5 6 89
26 189 3 13 8 51 11 85 4 34 9 65 12 70 2 4 6 24 8 45 2 20 6 51 9 67 8 53 17
109 21 140 20 150 24 167 45 160 10 -3 27 -8 37 -10 10 -2 30 -8 46 -14 15 -6
27 -8 27 -6 0 6 -47 26 -67 29 -18 3 -21 7 -26 43 -13 84 -53 158 -119 219
-40 38 -156 115 -180 119 -9 2 -26 9 -37 15 -20 10 -21 8 -22 -77z m1156 -737
c33 -28 66 -58 73 -68 7 -9 19 -24 27 -32 24 -24 18 -43 -31 -88 -73 -67 -101
-93 -223 -207 -63 -58 -122 -113 -131 -121 -10 -8 -38 -35 -63 -59 l-47 -45
-27 30 c-49 52 -57 56 -76 34 -16 -19 -15 -22 23 -60 37 -37 42 -39 56 -25 18
17 17 17 38 9 22 -8 20 -36 -3 -56 -16 -13 -18 -23 -11 -52 7 -33 6 -37 -26
-55 -19 -11 -34 -25 -34 -31 0 -5 -6 -10 -12 -10 -7 0 -28 -14 -47 -30 -86
-76 -240 -190 -257 -190 -25 0 4 32 82 90 41 30 74 58 74 63 0 4 5 7 10 7 6 0
23 11 38 25 16 14 37 33 48 41 14 12 12 12 -11 -1 -16 -10 -39 -26 -51 -36
-11 -11 -26 -19 -32 -19 -7 0 -12 -3 -12 -7 0 -5 -21 -21 -48 -38 -26 -16 -49
-32 -52 -35 -3 -3 -20 -16 -38 -29 -27 -19 -49 -24 -107 -26 -43 -1 -86 3
-104 11 -31 13 -31 14 -16 38 9 14 32 37 51 51 40 31 45 66 12 87 -13 8 -52
25 -87 37 -154 53 -203 96 -175 153 23 44 68 70 111 64 21 -3 67 -8 103 -11
92 -7 158 -14 209 -20 36 -5 41 -4 30 7 -13 12 -47 36 -90 63 -134 83 -146 99
-105 147 23 26 72 20 176 -25 58 -25 76 -37 78 -55 3 -17 22 -32 73 -57 63
-32 85 -35 59 -9 -7 7 7 34 43 85 109 153 161 235 223 356 35 68 64 132 64
142 0 10 3 21 8 25 8 8 9 14 11 52 l1 26 68 -48 c37 -26 94 -70 127 -98z m435
-541 c12 -38 28 -80 36 -92 13 -21 11 -23 -74 -63 -48 -23 -114 -55 -147 -70
-172 -82 -315 -150 -360 -170 -27 -12 -58 -26 -67 -31 -14 -8 -20 -3 -31 23
-8 18 -24 55 -37 81 -12 26 -21 49 -19 51 2 2 49 27 104 56 55 29 123 65 150
80 28 15 109 58 180 95 72 38 153 81 180 96 28 15 53 25 56 21 4 -4 17 -38 29
-77z m-810 -315 c14 -33 34 -39 48 -14 8 14 13 11 34 -17 42 -57 65 -120 78
-214 15 -101 27 -136 41 -114 6 10 10 7 18 -13 10 -27 13 -28 74 -12 12 3 31
7 42 8 11 2 31 6 45 9 14 4 36 9 50 11 14 2 45 9 70 15 25 5 61 13 80 16 19 3
43 8 52 11 9 3 27 7 40 9 13 3 79 17 148 31 69 14 133 28 143 29 16 4 24 -20
17 -50 -1 -5 -2 -40 -2 -77 1 -57 -1 -68 -16 -70 -9 0 -28 -2 -42 -3 -14 -2
-50 -5 -80 -9 -30 -4 -77 -9 -105 -12 -27 -3 -66 -7 -85 -9 -48 -6 -158 -17
-200 -20 -33 -3 -90 -9 -187 -20 -33 -4 -43 -2 -43 10 0 8 -9 19 -20 25 -19
10 -20 8 -21 -45 0 -30 -1 -74 -1 -97 -1 -61 -31 -132 -57 -136 -13 -2 -21
-11 -21 -23 0 -18 -2 -19 -30 -4 -16 9 -30 13 -30 10 0 -4 -12 0 -27 9 -30 15
-40 20 -198 86 -55 23 -113 48 -130 55 -16 8 -70 30 -120 51 -49 20 -112 46
-140 59 -27 12 -57 25 -65 28 -10 3 -6 6 10 7 176 9 320 65 320 123 0 25 -34
86 -58 103 -12 9 18 36 164 151 99 77 182 139 185 137 4 -2 12 -17 19 -34z
m-1558 -138 c51 -22 190 -79 308 -127 170 -70 222 -96 250 -124 19 -20 44 -41
55 -48 20 -12 -31 6 -90 32 -16 7 -64 28 -105 45 -77 32 -101 43 -180 78 -25
11 -74 32 -110 47 -36 14 -81 34 -100 42 -19 9 -64 29 -100 44 -47 20 -66 34
-68 48 -4 24 -10 26 140 -37z m234 -200 c228 -97 414 -180 414 -184 0 -3 -37
-32 -82 -64 -46 -32 -87 -62 -93 -66 -5 -5 -84 -63 -175 -128 -293 -212 -302
-219 -332 -238 -16 -9 -28 -22 -28 -29 0 -15 -62 -63 -81 -63 -8 0 -32 28 -53
61 -22 34 -46 67 -53 75 -12 11 -1 20 66 53 l79 40 -14 48 c-23 77 -21 74 -49
63 -33 -12 -69 -20 -125 -25 -43 -4 -101 -13 -145 -21 -11 -2 -33 -7 -50 -9
-16 -3 -37 -8 -45 -10 -8 -2 -33 -6 -55 -10 -22 -3 -85 -15 -140 -26 -128 -26
-122 -25 -175 -39 -25 -7 -49 -13 -55 -15 -5 -1 -17 -5 -25 -8 -8 -3 -32 -11
-52 -17 -21 -6 -38 -15 -38 -20 0 -13 -60 -34 -70 -24 -5 5 -11 23 -15 39 -3
17 -8 46 -12 65 -4 19 -7 75 -7 124 -1 82 1 89 19 92 77 8 156 19 215 30 14 2
45 6 70 9 25 3 52 8 60 10 8 2 38 7 65 10 28 4 57 8 65 10 8 2 37 7 64 11 27
3 86 12 132 18 45 7 131 14 190 15 60 1 109 3 110 4 6 6 -30 133 -41 145 -7 7
-34 13 -63 14 l-52 0 4 76 c5 71 16 127 30 151 4 5 34 10 67 10 58 0 88 -11
475 -177z m790 -232 c8 0 14 -5 14 -12 0 -6 3 -9 6 -6 6 7 35 -4 140 -52 35
-17 66 -30 68 -30 2 0 21 -8 42 -17 22 -9 41 -17 44 -18 3 0 27 -11 54 -23 27
-12 50 -22 52 -22 2 0 26 -9 52 -21 63 -28 80 -35 125 -53 25 -10 37 -21 37
-35 0 -19 -5 -18 -87 15 -87 36 -111 46 -188 80 -22 9 -42 18 -45 19 -42 15
-236 99 -244 107 -6 4 -16 8 -23 8 -7 0 -37 11 -67 25 -30 14 -66 29 -80 35
-16 6 -26 17 -26 30 0 19 1 19 56 -5 31 -14 63 -25 70 -25z m-406 -29 c0 -39
-2 -41 -168 -173 -93 -73 -181 -142 -196 -153 -16 -11 -33 -25 -40 -30 -6 -6
-44 -37 -84 -68 -64 -51 -74 -56 -87 -43 -22 22 -19 31 22 62 20 16 64 52 97
79 34 28 88 72 121 97 33 26 104 82 157 126 53 43 112 89 132 103 20 13 36 27
36 32 0 4 2 7 5 7 3 0 5 -18 5 -39z m-45 -123 c-2 -24 -7 -77 -10 -118 -3 -41
-8 -91 -10 -110 -3 -19 -7 -60 -10 -90 -10 -124 -15 -177 -21 -220 -3 -25 -7
-69 -9 -99 -2 -29 -6 -55 -9 -58 -2 -3 -48 18 -102 46 -112 57 -111 57 -160
-26 -22 -39 -29 -44 -51 -38 -13 3 -22 2 -19 -3 3 -5 -11 -34 -30 -66 -18 -31
-34 -59 -34 -61 0 -3 -32 -55 -71 -117 -40 -62 -79 -125 -88 -140 -9 -16 -19
-28 -23 -28 -5 0 -8 -4 -8 -9 0 -5 -32 -56 -70 -115 -66 -100 -71 -105 -95
-96 -52 20 -87 42 -210 134 l-125 94 140 180 c119 154 157 195 261 282 67 56
124 98 128 93 14 -21 100 -83 156 -113 33 -17 51 -24 40 -15 -11 8 -29 24 -40
33 -11 10 -34 27 -52 40 l-32 23 60 59 60 59 -21 40 -20 40 43 39 c23 22 56
53 73 68 55 50 204 187 272 249 36 33 70 65 76 72 16 18 16 17 11 -29z m-805
-315 c14 -21 40 -57 57 -80 l33 -43 -43 -26 c-59 -38 -277 -201 -442 -332 -77
-62 -145 -112 -151 -112 -27 0 -206 280 -197 307 3 7 30 27 61 45 31 17 60 36
64 42 4 6 8 7 8 2 0 -5 7 -3 15 4 9 7 48 30 88 50 40 20 83 42 96 49 14 8 41
15 60 16 20 2 45 5 56 8 29 8 235 93 242 101 14 13 29 4 53 -31z m1670 -645
c74 -150 137 -275 140 -278 3 -3 13 -22 22 -42 13 -28 14 -39 5 -46 -15 -13
-147 -66 -151 -61 -2 2 -26 60 -53 129 -28 69 -54 134 -58 145 -5 11 -9 22
-10 25 -1 3 -7 18 -14 34 -24 58 -89 263 -94 296 -5 27 -2 37 16 49 25 19 50
30 57 26 3 -2 66 -126 140 -277z m-934 210 c-3 -13 -5 -29 -5 -35 -1 -17 -31
-17 -31 0 0 13 27 57 36 57 2 0 2 -10 0 -22z m549 -46 c0 -18 2 -32 5 -32 6 0
4 -89 -2 -95 -2 -2 -1 -30 2 -62 4 -31 3 -74 0 -95 -4 -21 -4 -38 0 -38 4 0 4
-16 0 -35 -5 -21 -4 -38 2 -41 6 -4 6 -10 0 -16 -5 -5 -6 -24 -2 -43 4 -19 5
-36 3 -39 -8 -7 -6 -203 1 -215 5 -7 -2 -11 -18 -11 -21 0 -26 5 -27 28 -1 15
-2 45 -4 67 -1 22 -6 94 -9 160 -4 66 -9 161 -12 210 -2 50 -6 124 -9 165 -5
90 0 109 28 120 33 13 42 6 42 -28z m-520 -89 c-3 -27 -7 -64 -10 -83 -2 -19
-7 -60 -10 -90 -3 -30 -8 -71 -10 -90 -2 -19 -6 -62 -10 -95 -3 -33 -8 -76
-10 -95 -3 -19 -7 -60 -10 -90 -4 -30 -8 -68 -10 -85 -2 -16 -4 -33 -4 -38 -1
-9 -99 -1 -149 13 -20 5 -48 11 -62 13 -18 3 -24 10 -22 23 11 58 161 432 238
592 25 52 40 72 54 72 17 0 19 -6 15 -47z m-201 -1548 c-4 -16 -8 -41 -9 -55
-2 -14 -4 -25 -5 -25 -1 0 -3 -13 -5 -30 -2 -16 -7 -45 -10 -62 l-6 -33 -194
97 c-107 54 -193 99 -191 101 2 1 28 5 57 8 30 3 70 7 89 9 19 2 76 7 125 10
50 4 92 9 94 11 3 2 17 3 32 2 26 -2 28 -5 23 -33z m846 -23 c76 -35 182 -82
185 -82 3 0 29 -11 60 -25 56 -26 69 -40 38 -41 -21 -1 -127 -12 -163 -18 -94
-16 -110 -15 -120 4 -5 10 -13 36 -16 57 -3 21 -9 57 -14 80 -4 24 -5 41 -1
40 3 -2 17 -8 31 -15z"/>
<path d="M2080 4805 c0 -8 4 -15 10 -15 5 0 7 7 4 15 -4 8 -8 15 -10 15 -2 0
-4 -7 -4 -15z"/>
<path d="M2089 4775 c-9 -8 12 -105 22 -105 9 0 6 30 -9 83 -4 16 -10 26 -13
22z"/>
<path d="M3710 6680 c8 -5 20 -10 25 -10 6 0 3 5 -5 10 -8 5 -19 10 -25 10 -5
0 -3 -5 5 -10z"/>
<path d="M3775 6660 c3 -5 14 -10 23 -10 15 0 15 2 2 10 -20 13 -33 13 -25 0z"/>
<path d="M4970 4485 c-14 -25 -7 -47 9 -29 14 14 23 54 13 54 -5 0 -15 -11
-22 -25z"/>
<path d="M4057 4358 c-20 -29 -50 -68 -66 -86 l-31 -33 495 -494 c272 -272
499 -495 504 -495 7 0 169 208 231 296 29 42 104 139 118 153 7 7 10 17 5 22
-7 6 -323 190 -433 251 -19 11 -48 27 -65 37 -36 21 -136 75 -300 162 -66 35
-151 80 -190 100 -38 21 -107 56 -152 79 -46 23 -80 46 -77 51 3 5 3 9 1 9 -2
0 -20 -24 -40 -52z"/>
<path d="M4770 4070 c-6 -11 -8 -20 -6 -20 3 0 10 9 16 20 6 11 8 20 6 20 -3
0 -10 -9 -16 -20z"/>
</g>
</svg>
